<svg xmlns:xlink="http://www.w3.org/1999/xlink" version="1.1" xmlns="http://www.w3.org/2000/svg"
  class="share-empty"
  role="img"
  aria-hidden="true"
  tabindex="-1"
  viewBox="0 0 24 16">
    <path d="M15.45 1.7v2.643c0 .248-.17.464-.414.526C10.658 5.959 4.628 8.26 1.88 13.555c2.55-1.7 5.333-2.668 7.68-3.178a28.003 28.003 0 0 1 3.656-.542c.943-.076 1.512-.077 1.707-.068a.546.546 0 0 1 .525.542v2.628l6.863-5.61-6.863-5.628zM14.966.003a.552.552 0 0 1 .284.12l8.276 6.779a.536.536 0 0 1 0 .839l-8.276 6.78a.558.558 0 0 1-.777-.07.538.538 0 0 1-.128-.346V10.87c-.265.003-.443-.006-1.043.042-.902.073-2.121.226-3.5.526-2.758.599-6.142 1.8-8.888 4.16a.558.558 0 0 1-.778-.05.536.536 0 0 1-.11-.526C2.333 8.037 9.376 5.217 14.346 3.928V.547a.547.547 0 0 1 .62-.543z"
      fill="#A4A4A4" fill-rule="evenodd"/>
</svg>